<svg xmlns="http://www.w3.org/2000/svg" viewBox="210 163 900 900">
  <rect x="210" y="163" width="900" height="900" rx="150" fill="#500f1a"/>
  <defs>
    <clipPath id="mk">
      <!-- left stem + diagonal -->
      <path d="M283 352H403L609 626L560 677L375 428V830Q376 858 440 876H283Q340 866 352 800V410Q340 372 283 352Z"/>
      <!-- sweeping stroke -->
      <path d="M832 352H1010Q940 372 870 420L640 650Q590 710 575 770Q574 850 636 876H508Q505 800 560 720Q600 670 660 610L850 420Q880 385 832 352Z"/>
      <!-- right diagonal -->
      <path d="M768 563L990 830Q1010 862 1037 876H930Q895 870 870 838L725 612Z"/>
    </clipPath>
  </defs>
  <g clip-path="url(#mk)">
    <rect x="210" y="163" width="900" height="900" fill="#f5f0e8"/>
    <g fill="none" stroke="#500f1a" stroke-width="3">
      <path d="M340 380Q400 390 440 410T520 440"/>
      <path d="M400 460Q450 470 500 450"/>
      <path d="M500 590Q540 560 580 610"/>
      <path d="M760 580Q800 640 780 700T850 780"/>
      <path d="M820 640Q860 700 850 760T930 830"/>
    </g>
  </g>
</svg>
